<svg width="652" height="137" viewBox="0 0 652 137" fill="none" xmlns="http://www.w3.org/2000/svg">
<path d="M13.92 88.98C9.6 88.98 7.68 87.54 8.16 84.66C9.48 79.5 10.56 74.28 11.4 69C12.36 63.6 12.84 58.44 12.84 53.52C12.84 47.16 12.42 42.54 11.58 39.66C10.86 36.66 9.84 34.62 8.52 33.54C7.2 32.34 5.58 31.44 3.66 30.84C2.82 30.48 2.04 30 1.32 29.4C0.72 28.8 0.42 27.96 0.42 26.88C0.42 25.2 1.08 23.34 2.4 21.3C3.72 19.26 5.58 17.52 7.98 16.08C10.5 14.52 13.32 13.74 16.44 13.74C20.52 13.74 23.34 15.18 24.9 18.06C26.46 20.82 27.24 24.48 27.24 29.04C27.24 32.04 26.94 35.4 26.34 39.12C25.74 42.84 25.14 46.2 24.54 49.2L24.9 49.38C26.82 43.02 29.16 37.14 31.92 31.74C34.8 26.34 38.22 21.96 42.18 18.6C46.26 15.24 50.94 13.56 56.22 13.56C61.62 13.56 65.88 15.42 69 19.14C72.12 22.74 73.68 28.08 73.68 35.16V39.12C77.16 31.8 81.36 25.68 86.28 20.76C91.32 15.84 97.38 13.38 104.46 13.38C110.22 13.38 114.72 15.3 117.96 19.14C121.2 22.98 122.82 27.78 122.82 33.54C122.82 35.82 122.58 38.04 122.1 40.2C121.62 42.24 121.08 44.28 120.48 46.32C120 48.24 119.52 50.22 119.04 52.26C118.56 54.3 118.32 56.34 118.32 58.38C118.32 65.58 121.38 70.26 127.5 72.42C128.34 72.78 129 73.2 129.48 73.68C129.96 74.04 130.2 74.76 130.2 75.84C130.2 76.92 129.84 78.48 129.12 80.52C128.52 82.56 127.26 84.48 125.34 86.28C123.42 87.96 120.66 88.8 117.06 88.8C112.38 88.8 108.78 87.12 106.26 83.76C103.74 80.28 102.48 75.9 102.48 70.62C102.48 67.98 102.72 65.22 103.2 62.34C103.68 59.46 104.28 56.7 105 54.06C105.6 51.66 106.08 49.38 106.44 47.22C106.92 45.06 107.16 43.2 107.16 41.64C107.16 38.76 106.44 36.66 105 35.34C103.68 34.02 101.88 33.36 99.6 33.36C95.76 33.36 92.28 34.56 89.16 36.96C86.16 39.36 83.46 42.48 81.06 46.32C78.78 50.16 76.8 54.36 75.12 58.92C75.24 60 75.3 61.44 75.3 63.24C75.42 64.92 75.48 66.42 75.48 67.74C75.48 70.02 75.3 72.42 74.94 74.94C74.7 77.46 74.16 79.56 73.32 81.24C72.36 83.52 70.92 85.38 69 86.82C67.2 88.26 64.74 88.98 61.62 88.98C60.3 88.98 59.04 88.68 57.84 88.08C56.64 87.6 56.04 86.76 56.04 85.56C56.04 85.08 56.4 82.98 57.12 79.26C57.84 75.42 58.56 70.74 59.28 65.22C60 59.7 60.36 54.3 60.36 49.02C60.36 43.26 59.76 39.3 58.56 37.14C57.36 34.86 55.56 33.72 53.16 33.72C50.16 33.72 47.28 34.98 44.52 37.5C41.88 40.02 39.42 43.26 37.14 47.22C34.98 51.18 33.06 55.32 31.38 59.64C29.82 63.96 28.56 67.98 27.6 71.7V73.68C27.6 78.12 26.34 81.78 23.82 84.66C21.42 87.54 18.12 88.98 13.92 88.98ZM146.692 136.68C141.773 136.68 137.573 135.36 134.092 132.72C130.492 130.08 128.692 126.54 128.692 122.1C128.692 118.62 129.772 115.62 131.932 113.1C133.972 110.7 136.553 109.5 139.673 109.5C141.113 109.5 142.133 109.74 142.733 110.22C143.333 110.7 143.813 111.24 144.173 111.84C145.133 113.4 146.213 114.72 147.413 115.8C148.733 117 150.473 117.6 152.633 117.6C155.513 117.6 158.273 116.58 160.913 114.54C163.673 112.5 166.193 110.16 168.473 107.52C170.513 105.24 172.973 101.94 175.853 97.62C178.733 93.42 181.613 88.62 184.493 83.22C181.853 85.5 179.393 87.12 177.113 88.08C174.833 89.16 172.673 89.7 170.633 89.7C168.113 89.7 165.653 88.8 163.253 87C160.853 85.08 159.353 81.54 158.753 76.38C158.393 72.42 157.673 68.04 156.593 63.24C155.633 58.44 154.373 53.82 152.813 49.38C151.373 44.82 149.573 40.98 147.413 37.86C146.573 36.42 145.613 35.34 144.533 34.62C143.453 33.9 141.893 33.42 139.853 33.18C138.413 33.06 137.453 32.64 136.973 31.92C136.613 31.2 136.433 30.06 136.433 28.5C136.433 24.18 137.633 20.7 140.033 18.06C142.433 15.42 145.673 14.1 149.753 14.1C154.673 14.1 158.213 16.02 160.373 19.86C162.533 23.58 164.393 28.14 165.953 33.54C166.553 35.7 167.153 38.58 167.753 42.18C168.473 45.66 169.073 49.44 169.553 53.52C170.153 57.6 170.573 61.5 170.813 65.22C170.933 67.86 172.433 69.18 175.313 69.18C179.153 69.18 182.813 67.98 186.293 65.58C189.773 63.18 192.593 60.06 194.753 56.22C197.033 52.38 198.173 48.36 198.173 44.16C198.173 41.76 197.873 39.6 197.273 37.68C196.673 35.76 195.653 34.08 194.213 32.64C193.013 31.2 192.053 30.06 191.333 29.22C190.613 28.26 190.253 27.18 190.253 25.98C190.253 23.94 191.213 22.02 193.133 20.22C195.053 18.42 197.333 16.92 199.973 15.72C202.733 14.52 205.133 13.92 207.173 13.92C210.773 13.92 213.173 15.66 214.373 19.14C215.573 22.5 215.873 26.22 215.273 30.3C214.553 35.94 213.113 42.6 210.953 50.28C208.793 57.96 205.973 66 202.493 74.4C199.133 82.8 195.233 90.9 190.793 98.7C186.473 106.62 181.853 113.52 176.933 119.4C172.733 124.56 168.053 128.7 162.893 131.82C157.733 135.06 152.333 136.68 146.692 136.68ZM229.744 59.46C227.944 59.46 227.044 57.72 227.044 54.24C227.044 52.2 227.224 50.1 227.584 47.94C228.064 45.66 228.784 43.8 229.744 42.36C229.984 42 230.404 41.64 231.004 41.28C231.604 40.8 232.444 40.56 233.524 40.56H272.404C273.844 40.56 274.744 40.92 275.104 41.64C275.584 42.24 275.824 43.2 275.824 44.52C275.824 45.84 275.644 47.52 275.284 49.56C274.924 51.6 274.324 53.4 273.484 54.96C272.644 56.52 271.504 57.3 270.064 57.3H254.044C249.844 57.3 246.004 57.48 242.524 57.84C239.044 58.2 236.164 58.56 233.884 58.92C232.084 59.28 230.704 59.46 229.744 59.46ZM299.243 136.68C295.643 136.68 292.823 135.66 290.783 133.62C288.743 131.7 287.723 128.16 287.723 123C287.723 119.52 288.083 115.14 288.803 109.86C289.643 104.58 290.603 99 291.683 93.12C292.523 88.44 293.303 83.52 294.023 78.36C294.863 73.2 295.523 68.16 296.003 63.24C296.603 58.2 296.903 53.7 296.903 49.74C296.903 45.18 296.363 41.22 295.283 37.86C294.323 34.5 292.283 32.34 289.163 31.38C287.963 30.9 286.883 30.36 285.923 29.76C284.963 29.16 284.483 28.2 284.483 26.88C284.483 25.2 285.143 23.34 286.463 21.3C287.783 19.26 289.643 17.52 292.043 16.08C294.563 14.52 297.383 13.74 300.503 13.74C304.583 13.74 307.403 15.18 308.963 18.06C310.523 20.82 311.303 24.48 311.303 29.04C311.303 30.36 311.243 31.74 311.123 33.18C311.003 34.5 310.823 35.88 310.583 37.32C314.063 30.6 318.623 24.96 324.263 20.4C330.023 15.72 336.503 13.38 343.703 13.38C350.903 13.38 356.543 15.84 360.623 20.76C364.823 25.56 366.923 32.1 366.923 40.38C366.923 46.5 365.963 52.5 364.043 58.38C362.123 64.14 359.423 69.36 355.943 74.04C352.463 78.72 348.263 82.44 343.343 85.2C338.543 87.96 333.143 89.34 327.143 89.34C322.823 89.34 319.043 88.56 315.803 87C312.563 85.56 309.743 83.64 307.343 81.24C306.863 84.36 306.383 88.14 305.903 92.58C305.543 97.02 305.363 101.16 305.363 105C305.363 109.44 305.843 112.92 306.803 115.44C307.883 117.96 309.923 119.88 312.923 121.2C314.243 121.8 314.903 122.76 314.903 124.08C314.903 125.04 314.423 126.54 313.463 128.58C312.503 130.62 310.883 132.48 308.603 134.16C306.443 135.84 303.323 136.68 299.243 136.68ZM331.283 69.9C338.123 69.9 343.403 67.74 347.123 63.42C350.843 59.1 352.703 54.12 352.703 48.48C352.703 43.56 351.383 39.78 348.743 37.14C346.103 34.38 342.563 33 338.123 33C333.563 33 329.543 34.38 326.062 37.14C322.583 39.78 319.583 43.26 317.063 47.58C314.663 51.9 312.683 56.52 311.123 61.44C317.123 67.08 323.843 69.9 331.283 69.9ZM409.155 89.34C400.875 89.34 394.215 87.12 389.175 82.68C384.255 78.12 381.795 71.46 381.795 62.7C381.795 58.62 382.335 54.66 383.415 50.82C384.615 46.98 386.175 43.38 388.095 40.02C386.175 41.22 384.735 41.82 383.775 41.82C382.335 41.82 381.315 41.04 380.715 39.48C380.235 37.8 379.995 36.18 379.995 34.62C379.995 31.86 380.535 29.7 381.615 28.14C382.815 26.46 383.955 25.2 385.035 24.36C387.555 22.2 391.515 19.86 396.915 17.34C402.315 14.7 408.795 13.38 416.355 13.38C426.675 13.38 434.655 16.26 440.295 22.02C446.055 27.78 448.935 35.82 448.935 46.14C448.935 54.18 447.255 61.5 443.895 68.1C440.535 74.58 435.855 79.74 429.855 83.58C423.975 87.42 417.075 89.34 409.155 89.34ZM414.735 70.98C420.735 70.98 425.775 69.12 429.855 65.4C434.055 61.56 436.155 56.52 436.155 50.28C436.155 43.8 434.055 39.18 429.855 36.42C425.655 33.66 420.795 32.28 415.275 32.28C412.755 32.28 410.475 32.52 408.435 33C406.395 33.48 404.475 34.08 402.675 34.8C400.995 37.2 399.495 39.9 398.175 42.9C396.855 45.9 396.195 49.2 396.195 52.8C396.195 58.8 397.995 63.36 401.595 66.48C405.195 69.48 409.575 70.98 414.735 70.98ZM473.605 88.98C471.685 88.98 470.125 88.62 468.925 87.9C467.845 87.3 467.485 86.22 467.845 84.66C469.165 79.5 470.245 74.28 471.085 69C472.045 63.6 472.525 58.44 472.525 53.52C472.525 47.16 472.105 42.54 471.265 39.66C470.545 36.66 469.525 34.62 468.205 33.54C466.885 32.34 465.265 31.44 463.345 30.84C462.505 30.48 461.725 30 461.005 29.4C460.405 28.8 460.105 27.96 460.105 26.88C460.105 25.2 460.765 23.34 462.085 21.3C463.405 19.26 465.265 17.52 467.665 16.08C470.065 14.52 472.825 13.74 475.945 13.74C480.025 13.74 482.845 15.18 484.405 18.06C486.085 20.82 486.925 24.48 486.925 29.04C489.085 24.24 491.725 20.46 494.845 17.7C498.085 14.82 502.105 13.38 506.905 13.38C510.145 13.38 512.845 14.1 515.005 15.54C517.165 16.98 518.245 19.32 518.245 22.56C518.245 25.8 517.165 28.86 515.005 31.74C512.965 34.5 510.865 35.88 508.705 35.88C508.345 35.88 507.925 35.82 507.445 35.7C506.965 35.58 506.545 35.28 506.185 34.8C504.625 32.88 502.705 31.92 500.425 31.92C496.945 31.92 493.885 34.2 491.245 38.76C488.605 43.32 487.165 49.62 486.925 57.66C487.045 60.66 487.105 63.72 487.105 66.84C487.225 69.96 487.285 72.24 487.285 73.68C487.285 78.12 486.025 81.78 483.505 84.66C481.105 87.54 477.805 88.98 473.605 88.98ZM549.026 89.34C541.706 89.34 536.426 86.94 533.186 82.14C530.066 77.22 528.506 70.92 528.506 63.24C528.506 60.48 528.626 57.78 528.866 55.14C529.226 52.5 529.586 49.86 529.946 47.22C530.306 44.58 530.666 42 531.026 39.48C531.386 36.96 531.686 34.56 531.926 32.28C529.406 33 526.886 33.36 524.366 33.36C521.726 33.36 520.406 32.28 520.406 30.12C520.406 27.84 521.426 25.08 523.466 21.84C525.506 18.48 528.026 15.18 531.026 11.94C534.146 8.69999 537.206 5.99999 540.206 3.84C543.326 1.55999 545.966 0.419994 548.126 0.419994C550.766 0.419994 552.086 2.69999 552.086 7.26C552.086 8.46 551.966 9.72 551.726 11.04C551.606 12.24 551.426 13.5 551.186 14.82C553.466 14.34 555.746 13.92 558.026 13.56C560.426 13.2 562.706 13.02 564.866 13.02C567.626 13.02 569.726 13.5 571.166 14.46C572.726 15.42 573.506 17.28 573.506 20.04C573.506 22.92 572.786 25.8 571.346 28.68C570.026 31.56 568.526 33 566.846 33C566.486 33 565.886 32.94 565.046 32.82C564.206 32.7 563.186 32.52 561.986 32.28C560.426 31.92 558.446 31.56 556.046 31.2C553.646 30.84 550.766 30.66 547.406 30.66C546.566 34.38 545.786 38.22 545.066 42.18C544.466 46.02 544.166 49.5 544.166 52.62C544.166 59.58 545.906 64.32 549.386 66.84C552.866 69.36 557.906 70.62 564.506 70.62C566.546 70.62 567.986 70.98 568.826 71.7C569.666 72.3 570.086 73.44 570.086 75.12C570.086 79.08 568.046 82.44 563.966 85.2C559.886 87.96 554.906 89.34 549.026 89.34ZM611.479 89.34C603.199 89.34 596.539 87.12 591.499 82.68C586.579 78.12 584.119 71.46 584.119 62.7C584.119 58.62 584.659 54.66 585.739 50.82C586.939 46.98 588.499 43.38 590.419 40.02C588.499 41.22 587.059 41.82 586.099 41.82C584.659 41.82 583.639 41.04 583.039 39.48C582.559 37.8 582.319 36.18 582.319 34.62C582.319 31.86 582.859 29.7 583.939 28.14C585.139 26.46 586.279 25.2 587.359 24.36C589.879 22.2 593.839 19.86 599.239 17.34C604.639 14.7 611.119 13.38 618.679 13.38C628.999 13.38 636.979 16.26 642.619 22.02C648.379 27.78 651.259 35.82 651.259 46.14C651.259 54.18 649.579 61.5 646.219 68.1C642.859 74.58 638.179 79.74 632.179 83.58C626.299 87.42 619.399 89.34 611.479 89.34ZM617.059 70.98C623.059 70.98 628.099 69.12 632.179 65.4C636.379 61.56 638.479 56.52 638.479 50.28C638.479 43.8 636.379 39.18 632.179 36.42C627.979 33.66 623.119 32.28 617.599 32.28C615.079 32.28 612.799 32.52 610.759 33C608.719 33.48 606.799 34.08 604.999 34.8C603.319 37.2 601.819 39.9 600.499 42.9C599.179 45.9 598.519 49.2 598.519 52.8C598.519 58.8 600.319 63.36 603.919 66.48C607.519 69.48 611.899 70.98 617.059 70.98Z" fill="white"/>
</svg>
